<?xml version="1.0" standalone="no"?>
<!DOCTYPE svg PUBLIC "-//W3C//DTD SVG 20010904//EN"
 "http://www.w3.org/TR/2001/REC-SVG-20010904/DTD/svg10.dtd">
<svg version="1.0" xmlns="http://www.w3.org/2000/svg"
 width="500.000000pt" height="500.000000pt" viewBox="0 0 500.000000 500.000000"
 preserveAspectRatio="xMidYMid meet">
<metadata>
Created by potrace 1.14, written by Peter Selinger 2001-2017
</metadata>
<g transform="translate(0.000000,500.000000) scale(0.100000,-0.100000)"
fill="#000000" stroke="none">
<path d="M2838 3591 c-185 -60 -298 -216 -298 -413 l0 -58 58 0 c190 0 346
107 407 280 18 51 36 176 28 196 -8 20 -125 17 -195 -5z"/>
<path d="M3030 3210 c-63 -23 -140 -74 -188 -123 l-32 -33 57 -47 c32 -26 87
-62 123 -80 61 -30 71 -32 175 -32 98 0 116 3 165 26 62 29 159 100 174 126
13 24 -74 103 -162 145 -58 28 -79 32 -162 35 -76 3 -106 -1 -150 -17z"/>
<path d="M2543 2908 c2 -46 12 -106 22 -133 54 -161 199 -265 392 -282 83 -7
77 -13 73 87 -4 106 -63 235 -136 300 -72 63 -204 109 -313 110 l-44 0 6 -82z"/>
<path d="M1847 2212 c-34 -37 -14 -72 40 -72 26 0 36 6 45 26 11 23 10 29 -11
45 -29 24 -53 24 -74 1z"/>
<path d="M1490 2143 c0 -44 -3 -54 -12 -45 -7 7 -31 12 -54 12 -114 0 -162
-149 -73 -225 33 -27 94 -34 130 -15 13 7 19 7 19 0 0 -5 18 -10 40 -10 l40 0
0 170 0 170 -45 0 -45 0 0 -57z m-1 -134 c13 -24 13 -29 -2 -53 -22 -32 -71
-36 -87 -7 -36 69 51 128 89 60z"/>
<path d="M486 2180 c-93 -29 -112 -136 -31 -174 18 -9 37 -16 42 -16 4 0 25
-5 46 -11 26 -7 37 -16 37 -28 0 -32 -44 -34 -136 -6 -15 5 -23 0 -32 -20 -17
-38 -16 -42 21 -53 132 -41 237 -3 237 84 0 51 -21 71 -101 94 -71 21 -89 34
-71 52 13 13 54 15 103 4 34 -7 37 -6 47 24 10 28 9 32 -13 40 -39 15 -117 20
-149 10z"/>
<path d="M2841 2178 c-75 -21 -121 -81 -121 -158 0 -112 104 -188 220 -160 26
6 57 22 69 34 l21 22 -25 24 c-25 23 -26 23 -54 7 -76 -45 -158 14 -137 98 15
59 79 82 137 48 28 -16 29 -16 54 7 l25 24 -21 22 c-11 12 -40 27 -64 33 -51
13 -58 13 -104 -1z"/>
<path d="M4510 2130 c0 -23 -4 -30 -20 -30 -16 0 -20 -7 -20 -35 0 -28 4 -35
20 -35 18 0 20 -7 20 -60 0 -81 26 -110 98 -110 27 0 51 3 55 6 3 3 1 19 -5
35 -8 22 -15 28 -28 24 -24 -8 -40 21 -40 69 0 33 2 36 30 36 28 0 30 3 30 35
0 32 -2 35 -30 35 -27 0 -30 3 -30 30 0 28 -2 30 -40 30 -38 0 -40 -2 -40 -30z"/>
<path d="M740 2099 c-33 -14 -32 -13 -18 -43 12 -28 18 -28 79 -10 9 2 27 -4
40 -15 l24 -20 -35 -1 c-53 0 -109 -19 -120 -40 -30 -57 9 -110 81 -110 25 0
50 5 57 12 9 9 12 9 12 0 0 -8 17 -12 45 -12 l45 0 0 63 c-1 141 -26 180 -122
184 -35 1 -74 -2 -88 -8z m120 -154 c0 -23 -46 -41 -64 -26 -23 20 -8 41 30
41 24 0 34 -5 34 -15z"/>
<path d="M1000 1985 l0 -125 45 0 45 0 0 74 c0 76 13 106 45 106 32 0 45 -30
45 -106 l0 -74 40 0 40 0 0 98 c-1 60 -5 103 -13 113 -29 37 -96 51 -140 28
-16 -9 -22 -9 -25 0 -2 6 -21 11 -43 11 l-39 0 0 -125z"/>
<path d="M1640 1985 l0 -125 39 0 38 0 5 70 c6 77 18 100 54 100 21 0 24 5 24
40 0 45 -18 52 -58 24 -20 -14 -22 -14 -22 0 0 12 -10 16 -40 16 l-40 0 0
-125z"/>
<path d="M1840 1985 l0 -125 45 0 45 0 0 125 0 125 -45 0 -45 0 0 -125z"/>
<path d="M1980 1985 l0 -125 45 0 45 0 0 73 c0 76 15 107 51 107 30 0 39 -24
39 -102 l0 -78 45 0 45 0 0 80 c0 88 -16 142 -48 159 -26 14 -87 14 -112 1
-13 -7 -21 -7 -25 0 -3 5 -24 10 -46 10 l-39 0 0 -125z"/>
<path d="M2364 2100 c-40 -16 -74 -68 -74 -113 1 -51 17 -82 56 -108 36 -24
122 -26 166 -3 l31 16 -24 24 c-22 22 -28 23 -56 12 -24 -9 -38 -9 -57 0 -48
22 -29 32 59 32 97 0 103 5 83 65 -23 69 -111 105 -184 75z m94 -62 c21 -21
13 -28 -33 -28 -25 0 -45 4 -45 8 0 15 24 32 45 32 12 0 26 -5 33 -12z"/>
<path d="M3110 2088 c-49 -33 -69 -91 -49 -144 21 -54 68 -84 133 -84 86 0
135 46 136 128 0 34 -6 49 -34 79 -30 33 -39 37 -92 41 -50 3 -65 0 -94 -20z
m118 -60 c17 -17 15 -73 -2 -87 -8 -7 -27 -11 -43 -9 -59 7 -55 108 5 108 15
0 33 -5 40 -12z"/>
<path d="M3370 2030 c0 -88 16 -142 48 -159 26 -14 87 -14 113 -1 13 7 19 7
19 0 0 -5 18 -10 40 -10 l40 0 0 125 0 125 -40 0 -40 0 0 -68 c0 -72 -17 -112
-49 -112 -32 0 -41 22 -41 102 l0 78 -45 0 -45 0 0 -80z"/>
<path d="M3690 1940 l0 -170 45 0 45 0 0 57 c0 44 3 54 12 45 17 -17 83 -15
117 3 30 15 61 69 61 104 0 35 -26 86 -55 109 -31 25 -102 30 -124 10 -11 -10
-14 -10 -18 0 -3 7 -22 12 -44 12 l-39 0 0 -170z m182 75 c17 -38 0 -79 -35
-83 -37 -5 -57 14 -57 52 0 39 15 56 52 56 21 0 32 -7 40 -25z"/>
<path d="M4038 2098 c-31 -11 -35 -25 -15 -51 10 -14 18 -15 45 -8 35 11 82 0
82 -19 0 -5 -12 -10 -27 -10 -49 0 -103 -20 -119 -44 -19 -29 -10 -71 19 -91
28 -20 101 -19 121 1 15 14 16 14 16 0 0 -12 10 -16 40 -16 l40 0 0 85 c0 95
-12 130 -51 151 -32 16 -111 17 -151 2z m112 -151 c0 -18 -21 -37 -41 -37 -22
0 -33 16 -25 35 7 19 66 20 66 2z"/>
<path d="M4300 1985 l0 -125 40 0 40 0 0 66 c0 81 11 104 50 104 28 0 30 2 30
40 0 45 -18 52 -58 24 -20 -14 -22 -14 -22 0 0 12 -10 16 -40 16 l-40 0 0
-125z"/>
<path d="M1760 1630 c0 -11 7 -20 15 -20 8 0 15 9 15 20 0 11 -7 20 -15 20 -8
0 -15 -9 -15 -20z"/>
<path d="M2190 1630 c-12 -23 -1 -26 32 -9 17 9 18 13 7 20 -21 13 -27 11 -39
-11z"/>
<path d="M1537 1633 c-4 -3 -7 -51 -7 -105 l0 -98 55 0 c92 0 135 33 135 103
0 45 -31 84 -78 97 -42 11 -95 13 -105 3z m132 -59 c27 -35 26 -59 -4 -89 -16
-17 -35 -25 -60 -25 l-35 0 0 70 0 70 39 0 c31 0 44 -6 60 -26z"/>
<path d="M2020 1600 c0 -11 -4 -20 -10 -20 -5 0 -10 -7 -10 -15 0 -8 5 -15 10
-15 6 0 10 -22 10 -49 0 -54 15 -75 51 -69 28 4 38 28 11 28 -22 0 -32 18 -32
61 0 24 4 29 25 29 16 0 25 6 25 15 0 9 -9 15 -25 15 -18 0 -25 5 -25 20 0 11
-7 20 -15 20 -8 0 -15 -9 -15 -20z"/>
<path d="M3470 1600 c0 -11 -4 -20 -10 -20 -5 0 -10 -7 -10 -15 0 -8 5 -15 10
-15 6 0 10 -22 10 -49 0 -54 15 -75 51 -69 31 4 36 26 7 30 -19 2 -23 10 -26
45 -3 36 0 42 19 45 33 4 36 28 5 28 -19 0 -26 5 -26 20 0 11 -7 20 -15 20 -8
0 -15 -9 -15 -20z"/>
<path d="M1760 1510 c0 -64 3 -80 15 -80 12 0 15 16 15 80 0 64 -3 80 -15 80
-12 0 -15 -16 -15 -80z"/>
<path d="M1873 1580 c-47 -19 -58 -92 -20 -128 27 -25 74 -29 103 -7 21 16 18
17 -41 19 -29 1 -40 6 -43 19 -3 14 5 17 52 17 50 0 56 2 56 20 0 26 -43 70
-67 69 -10 0 -28 -4 -40 -9z m67 -35 c18 -22 9 -27 -41 -23 -41 3 -42 4 -25
21 22 21 49 22 66 2z"/>
<path d="M2163 1580 c-47 -19 -58 -92 -20 -128 27 -25 74 -29 103 -7 21 16 18
17 -41 19 -29 1 -40 6 -43 19 -3 14 5 17 52 17 50 0 56 2 56 20 0 26 -43 70
-67 69 -10 0 -28 -4 -40 -9z m67 -35 c18 -22 9 -27 -41 -23 -41 3 -42 4 -25
21 22 21 49 22 66 2z"/>
<path d="M2315 1565 c-31 -30 -33 -77 -5 -105 22 -22 69 -27 88 -8 9 9 12 7
12 -9 0 -30 -23 -45 -64 -41 -43 4 -48 -14 -7 -26 43 -12 87 8 100 46 14 40
14 155 1 163 -6 4 -16 2 -23 -4 -8 -6 -18 -6 -27 -1 -25 16 -50 11 -75 -15z
m88 -26 c13 -21 1 -65 -19 -73 -23 -9 -64 20 -64 44 0 44 60 65 83 29z"/>
<path d="M2523 1580 c-49 -20 -59 -96 -17 -129 36 -28 79 -27 109 4 63 62 -9
160 -92 125z m73 -45 c14 -21 15 -31 5 -51 -9 -21 -17 -25 -43 -22 -43 4 -61
47 -33 78 25 27 51 25 71 -5z"/>
<path d="M2677 1584 c-13 -14 -7 -109 9 -132 17 -25 62 -30 83 -9 11 10 14 10
18 0 3 -7 11 -13 19 -13 11 0 14 18 14 80 0 64 -3 80 -15 80 -11 0 -15 -11
-15 -37 0 -54 -20 -88 -50 -88 -23 0 -25 4 -30 59 -5 55 -16 76 -33 60z"/>
<path d="M2870 1510 c0 -63 3 -80 14 -80 11 0 16 15 18 52 3 46 6 54 31 66 15
7 27 17 27 21 0 18 -15 20 -37 6 -21 -14 -23 -14 -23 0 0 8 -7 15 -15 15 -12
0 -15 -16 -15 -80z"/>
<path d="M2987 1583 c-4 -3 -7 -39 -7 -80 0 -66 2 -73 20 -73 17 0 20 7 20 48
0 51 6 65 32 75 29 10 48 -19 48 -74 0 -37 4 -49 15 -49 11 0 15 12 15 45 0
56 29 92 60 75 16 -9 20 -21 20 -65 0 -48 2 -55 20 -55 17 0 20 7 20 50 0 90
-41 131 -95 96 -23 -15 -27 -15 -50 0 -20 13 -31 14 -55 6 -18 -7 -30 -7 -30
-1 0 10 -23 12 -33 2z"/>
<path d="M3330 1583 c-52 -19 -69 -94 -30 -133 22 -22 70 -26 101 -9 29 15 14
28 -26 22 -35 -6 -70 11 -59 28 3 5 30 9 61 9 55 0 55 0 49 28 -12 47 -53 71
-96 55z m60 -43 c10 -19 8 -20 -35 -20 -46 0 -54 7 -33 28 19 19 56 14 68 -8z"/>
</g>
</svg>
